<svg width="13.000000" height="20.000000" viewBox="0 0 13 20" fill="none" xmlns="http://www.w3.org/2000/svg" xmlns:xlink="http://www.w3.org/1999/xlink">
	<desc>
			Created with Pixso.
	</desc>
	<defs/>
	<path id="Vector" d="M6.52 3.9C5.04 3.89 3.83 5.11 3.82 6.62C3.81 8.12 5 9.36 6.47 9.37C6.48 9.37 6.49 9.37 6.5 9.37C7.96 9.37 9.16 8.16 9.17 6.66C9.18 5.15 7.99 3.91 6.52 3.9ZM6.5 8.59C6.49 8.59 6.49 8.59 6.48 8.59C5.43 8.58 4.58 7.7 4.58 6.62C4.59 5.55 5.45 4.68 6.49 4.68C6.5 4.68 6.5 4.68 6.51 4.68C7.56 4.69 8.41 5.57 8.41 6.65C8.4 7.72 7.54 8.59 6.5 8.59Z" fill="#FF7010" fill-opacity="1.000000" fill-rule="nonzero"/>
	<path id="Vector" d="M8.84 14.7C11.38 11.36 12.97 9.61 12.99 6.69C13.02 3 10.1 0 6.49 0C2.93 0 0.02 2.94 0 6.59C-0.03 9.59 1.59 11.33 4.15 14.7C1.61 15.09 0 16.07 0 17.26C0 18.06 0.72 18.78 2.04 19.28C3.23 19.74 4.82 20 6.5 20C8.17 20 9.76 19.74 10.96 19.28C12.27 18.78 12.99 18.06 12.99 17.26C12.99 16.07 11.39 15.09 8.84 14.7ZM0.76 6.59C0.78 3.38 3.35 0.78 6.49 0.78C9.67 0.78 12.25 3.43 12.23 6.68C12.21 9.46 10.52 11.17 7.83 14.75C7.35 15.39 6.91 16 6.5 16.59C6.08 16 5.65 15.4 5.16 14.75C2.36 11.02 0.74 9.44 0.76 6.59ZM6.5 19.21C3.21 19.21 0.76 18.18 0.76 17.26C0.76 16.58 2.23 15.71 4.69 15.41C5.24 16.14 5.71 16.81 6.18 17.49C6.25 17.59 6.37 17.65 6.49 17.65C6.49 17.65 6.49 17.65 6.5 17.65C6.62 17.65 6.74 17.59 6.81 17.49C7.27 16.82 7.76 16.14 8.3 15.41C10.77 15.71 12.23 16.58 12.23 17.26C12.23 18.18 9.78 19.21 6.5 19.21Z" fill="#FF7010" fill-opacity="1.000000" fill-rule="nonzero"/>
</svg>
