<svg width="16.666626" height="20.000000" viewBox="0 0 16.6666 20" fill="none" xmlns="http://www.w3.org/2000/svg" xmlns:xlink="http://www.w3.org/1999/xlink">
	<desc>
			Created with Pixso.
	</desc>
	<defs/>
	<path id="Vector (Stroke)" d="M8.33 0C5.69 0 3.54 2.14 3.54 4.79C3.54 7.43 5.69 9.58 8.33 9.58C10.97 9.58 13.12 7.43 13.12 4.79C13.12 2.14 10.97 0 8.33 0ZM4.6 4.79C4.6 2.73 6.27 1.06 8.33 1.06C10.38 1.06 12.05 2.73 12.05 4.79C12.05 6.84 10.38 8.51 8.33 8.51C6.27 8.51 4.6 6.84 4.6 4.79Z" fill="#FF7010" fill-opacity="1.000000" fill-rule="evenodd"/>
	<path id="Vector (Stroke)" d="M4.29 11.66C1.92 11.66 0 13.64 0 16.07L0 19.48C0 19.77 0.22 20 0.49 20L16.16 20C16.44 20 16.66 19.77 16.66 19.48L16.66 16.07C16.66 13.64 14.73 11.66 12.36 11.66L4.29 11.66ZM0.99 16.07C0.99 14.2 2.47 12.68 4.29 12.68L12.36 12.68C14.18 12.68 15.66 14.2 15.66 16.07L15.66 18.97L0.99 18.97L0.99 16.07Z" fill="#FF7010" fill-opacity="1.000000" fill-rule="evenodd"/>
</svg>
