<svg width="31.999908" height="32.000000" viewBox="0 0 31.9999 32" fill="none" xmlns="http://www.w3.org/2000/svg" xmlns:xlink="http://www.w3.org/1999/xlink">
	<desc>
			Created with Pixso.
	</desc>
	<defs/>
	<path id="Vector" d="M31.81 0.18C31.64 0.01 31.39 -0.05 31.16 0.03L5.2 9.29C4.3 8.74 3.15 8.61 2.11 9.04C0.36 9.76 -0.47 11.77 0.26 13.51C1.96 17.62 4.41 21.29 7.56 24.43C10.7 27.58 14.38 30.03 18.48 31.73C18.91 31.91 19.35 32 19.79 32C21.13 32 22.4 31.2 22.95 29.88C23.32 29 23.28 28.05 22.93 27.23L31.96 0.82C32.04 0.6 31.98 0.34 31.81 0.18ZM9.13 9.21L11.88 8.23C12.21 8.58 12.36 9.05 12.3 9.53C12.24 9.95 12.03 10.33 11.69 10.59C11.35 10.84 10.93 10.96 10.51 10.9C10.09 10.85 9.72 10.63 9.46 10.29C9.22 9.98 9.1 9.6 9.13 9.21ZM21.79 29.41C21.34 30.51 20.06 31.04 18.96 30.58C10.96 27.27 4.72 21.03 1.41 13.03C1.19 12.49 1.19 11.91 1.41 11.37C1.63 10.83 2.05 10.42 2.58 10.2C3.12 9.97 3.71 9.97 4.24 10.2C4.78 10.42 5.2 10.83 5.42 11.37C6.84 14.8 8.88 17.86 11.51 20.48C14.13 23.1 17.19 25.15 20.62 26.57C21.72 27.03 22.25 28.3 21.79 29.41ZM27.35 10.45C27.29 10.45 27.23 10.45 27.18 10.44C26.75 10.39 26.38 10.17 26.12 9.83C25.86 9.49 25.75 9.08 25.81 8.65C25.92 7.78 26.72 7.17 27.59 7.28C27.86 7.32 28.11 7.42 28.33 7.58L27.35 10.45ZM28.74 6.37C28.44 6.2 28.11 6.09 27.76 6.04C26.2 5.84 24.77 6.94 24.57 8.49C24.47 9.24 24.67 9.99 25.13 10.59C25.57 11.17 26.21 11.55 26.93 11.67L25.69 15.3L24.26 14.2C23.99 13.99 23.59 14.05 23.38 14.32C23.17 14.59 23.23 14.99 23.5 15.2L25.26 16.55L22.03 26C21.76 25.76 21.45 25.56 21.1 25.42C14.47 22.67 9.32 17.52 6.57 10.89C6.48 10.66 6.36 10.45 6.22 10.25L7.9 9.65C7.95 10.16 8.15 10.64 8.46 11.05C8.93 11.65 9.6 12.04 10.35 12.14C10.48 12.16 10.6 12.16 10.73 12.16C11.35 12.16 11.95 11.96 12.45 11.58C13.05 11.11 13.44 10.45 13.54 9.69C13.63 9.02 13.47 8.35 13.12 7.79L20.89 5.02L21.18 5.73C21.28 5.97 21.51 6.12 21.76 6.12C21.84 6.12 21.92 6.1 22 6.07C22.32 5.94 22.47 5.57 22.33 5.25L22.06 4.6L30.36 1.64L28.74 6.37Z" fill="#FF7010" fill-opacity="1.000000" fill-rule="nonzero"/>
	<path id="Vector" d="M6.74 16.76C6.74 16.76 6.74 16.75 6.74 16.75C6.54 16.46 6.16 16.38 5.87 16.58C5.58 16.77 5.51 17.15 5.7 17.44C5.81 17.62 6.02 17.73 6.22 17.73C6.34 17.73 6.45 17.69 6.56 17.63C6.85 17.44 6.93 17.05 6.74 16.76Z" fill="#FF7010" fill-opacity="1.000000" fill-rule="nonzero"/>
	<path id="Vector" d="M5.79 15.21C5.19 14.14 4.64 13.02 4.17 11.89C4.04 11.57 3.67 11.42 3.35 11.55C3.03 11.68 2.88 12.05 3.01 12.37C3.5 13.55 4.07 14.72 4.71 15.83C4.82 16.03 5.03 16.14 5.25 16.14C5.36 16.14 5.46 16.12 5.56 16.06C5.86 15.89 5.97 15.51 5.79 15.21Z" fill="#FF7010" fill-opacity="1.000000" fill-rule="nonzero"/>
	<path id="Vector" d="M19.55 7.99C19.43 7.98 19.3 7.97 19.18 7.97C17.76 7.97 16.55 9.03 16.36 10.44C16.16 12 17.26 13.43 18.81 13.63C18.93 13.65 19.06 13.66 19.18 13.66C20.6 13.66 21.82 12.59 22 11.18C22.21 9.63 21.11 8.2 19.55 7.99ZM20.76 11.02C20.66 11.81 19.98 12.41 19.18 12.41C19.12 12.41 19.04 12.4 18.97 12.39C18.1 12.28 17.49 11.48 17.6 10.6C17.71 9.82 18.38 9.22 19.18 9.22C19.25 9.22 19.32 9.22 19.39 9.23C20.26 9.35 20.88 10.15 20.76 11.02Z" fill="#FF7010" fill-opacity="1.000000" fill-rule="nonzero"/>
	<path id="Vector" d="M19.39 15.77C19.27 15.75 19.14 15.74 19.02 15.74C17.6 15.74 16.39 16.81 16.2 18.22C16.1 18.97 16.3 19.72 16.76 20.32C17.23 20.92 17.9 21.31 18.65 21.41C18.77 21.42 18.9 21.43 19.02 21.43C20.44 21.43 21.65 20.37 21.84 18.96C22.04 17.4 20.94 15.97 19.39 15.77ZM20.6 18.79C20.49 19.58 19.82 20.18 19.02 20.18C18.95 20.18 18.88 20.18 18.81 20.17C18.39 20.11 18.01 19.89 17.76 19.56C17.5 19.22 17.38 18.8 17.44 18.38C17.54 17.59 18.22 16.99 19.02 16.99C19.09 16.99 19.16 17 19.23 17.01C20.1 17.12 20.71 17.92 20.6 18.79Z" fill="#FF7010" fill-opacity="1.000000" fill-rule="nonzero"/>
	<path id="Vector" d="M15.27 13.18L13.35 12.93C13.01 12.88 12.69 13.12 12.65 13.46C12.6 13.81 12.84 14.12 13.18 14.17L15.11 14.42C15.13 14.42 15.16 14.42 15.19 14.42C15.5 14.42 15.76 14.2 15.81 13.88C15.85 13.54 15.61 13.22 15.27 13.18Z" fill="#FF7010" fill-opacity="1.000000" fill-rule="nonzero"/>
	<path id="Vector" d="M14.29 17.79L14.12 16.5C14.08 16.16 13.77 15.92 13.42 15.96C13.08 16.01 12.84 16.32 12.89 16.67L13.06 17.95C13.1 18.27 13.37 18.5 13.67 18.5C13.7 18.5 13.73 18.5 13.76 18.49C14.1 18.45 14.34 18.13 14.29 17.79Z" fill="#FF7010" fill-opacity="1.000000" fill-rule="nonzero"/>
</svg>
