<svg width="89.000000" height="40.000000" viewBox="0 0 89 40" fill="none" xmlns="http://www.w3.org/2000/svg" xmlns:xlink="http://www.w3.org/1999/xlink">
	<desc>
			Created with Pixso.
	</desc>
	<defs>
		<clipPath id="clip37_10412">
			<rect id="Shopping bag" rx="-0.500000" width="23.000000" height="23.000000" transform="translate(16.500000 8.500000)" fill="white" fill-opacity="0"/>
		</clipPath>
	</defs>
	<rect id="Frame 202" rx="3.500000" width="88.000000" height="39.000000" transform="translate(0.500000 0.500000)" fill="#FF7010" fill-opacity="1.000000"/>
	<g clip-path="url(#clip37_10412)">
		<path id="Vector" d="M23.78 23.5L36.48 23.5C36.79 23.5 37.07 23.29 37.16 22.99L39.97 13.19C40.03 12.98 39.99 12.75 39.85 12.57C39.72 12.4 39.51 12.29 39.29 12.29L22.15 12.29L21.65 10.04C21.58 9.72 21.29 9.5 20.96 9.5L16.7 9.5C16.31 9.5 16 9.81 16 10.2C16 10.58 16.31 10.89 16.7 10.89L20.4 10.89L22.94 22.27C22.19 22.59 21.67 23.33 21.67 24.2C21.67 25.35 22.61 26.29 23.78 26.29L36.48 26.29C36.87 26.29 37.18 25.98 37.18 25.6C37.18 25.21 36.87 24.89 36.48 24.89L23.78 24.89C23.39 24.89 23.07 24.58 23.07 24.2C23.07 23.81 23.39 23.5 23.78 23.5Z" fill="#FFFFFF" fill-opacity="1.000000" fill-rule="nonzero"/>
		<path id="Vector" d="M23.07 28.39C23.07 29.55 24.02 30.5 25.18 30.5C26.35 30.5 27.29 29.55 27.29 28.39C27.29 27.24 26.35 26.29 25.18 26.29C24.02 26.29 23.07 27.24 23.07 28.39Z" fill="#FFFFFF" fill-opacity="1.000000" fill-rule="nonzero"/>
		<path id="Vector" d="M32.96 28.39C32.96 29.55 33.91 30.5 35.07 30.5C36.24 30.5 37.18 29.55 37.18 28.39C37.18 27.24 36.24 26.29 35.07 26.29C33.91 26.29 32.96 27.24 32.96 28.39Z" fill="#FFFFFF" fill-opacity="1.000000" fill-rule="nonzero"/>
	</g>
	<path id="0 ₽" d="M57.04 20.07C57.04 23.81 55.59 25.95 53.06 25.95C50.52 25.95 49.06 23.79 49.06 20.04C49.06 16.32 50.53 14.14 53.06 14.14C55.57 14.14 57.04 16.33 57.04 20.07ZM69.7 22.82L69.7 23.89L66.46 23.89L66.46 25.68L65.05 25.68L65.05 23.89L63.49 23.89L63.49 22.82L65.05 22.82L65.05 21.32L63.49 21.32L63.49 20.1L65.05 20.1L65.05 14.41L68.62 14.41C70.74 14.41 72.1 15.89 72.1 17.87C72.1 19.85 70.72 21.32 68.6 21.32L66.46 21.32L66.46 22.82L69.7 22.82ZM50.47 20.04C50.47 23.06 51.39 24.72 53.06 24.72C54.72 24.72 55.63 23.07 55.63 20.04C55.63 17.05 54.71 15.38 53.06 15.38C51.41 15.38 50.47 17.07 50.47 20.04ZM68.25 15.66L66.46 15.66L66.46 20.1L68.25 20.1C69.86 20.1 70.65 19.23 70.65 17.87C70.65 16.52 69.87 15.66 68.25 15.66Z" fill="#FFFFFF" fill-opacity="1.000000" fill-rule="evenodd"/>
</svg>
