<svg width="24.000000" height="32.000000" viewBox="0 0 24 32" fill="none" xmlns="http://www.w3.org/2000/svg" xmlns:xlink="http://www.w3.org/1999/xlink">
	<desc>
			Created with Pixso.
	</desc>
	<defs/>
	<path id="Vector" d="M23.93 18.73C23.56 13.96 21.34 10.97 19.38 8.33C17.56 5.89 16 3.78 16 0.66C16 0.41 15.86 0.18 15.63 0.07C15.41 -0.05 15.14 -0.03 14.94 0.12C12 2.23 9.54 5.78 8.68 9.17C8.09 11.52 8.01 14.18 8 15.93C5.28 15.35 4.66 11.28 4.66 11.23C4.62 11.02 4.5 10.84 4.31 10.74C4.12 10.64 3.9 10.63 3.7 10.73C3.56 10.8 0.2 12.5 0.01 19.31C0 19.54 0 19.77 0 20C0 26.61 5.38 31.99 12 31.99C12 31.99 12.01 32 12.02 31.99C12.02 31.99 12.03 31.99 12.03 31.99C18.63 31.98 24 26.6 24 20C24 19.66 23.93 18.73 23.93 18.73ZM12 30.66C9.79 30.66 8 28.75 8 26.4C8 26.32 7.99 26.24 8 26.14C8.03 25.15 8.22 24.47 8.42 24.02C8.81 24.85 9.5 25.62 10.62 25.62C10.99 25.62 11.29 25.32 11.29 24.95C11.29 24 11.31 22.91 11.55 21.92C11.76 21.04 12.26 20.11 12.89 19.36C13.18 20.33 13.73 21.12 14.27 21.88C15.04 22.98 15.84 24.11 15.98 26.05C15.99 26.16 16 26.28 16 26.4C16 28.75 14.2 30.66 12 30.66Z" fill="#E23535" fill-opacity="1.000000" fill-rule="nonzero"/>
</svg>
